<svg xmlns="http://www.w3.org/2000/svg" width="60" height="60" enable-background="new" viewBox="0 0 60 60"><path d="m30 8c-8.8247 0-16 7.1753-16 16 0 4.5847 2.8334 11.304 6.1309 17.102 1.6487 2.899 3.4208 5.5356 5.0742 7.4902 0.44068 0.52095 0.87151 0.99039 1.2949 1.4082h-11.5c-0.55228 0-1 0.44772-1 1s0.44772 1 1 1h30c0.55228 0 1-0.44772 1-1s-0.44772-1-1-1h-11.5c0.42341-0.41781 0.85424-0.88726 1.2949-1.4082 1.6534-1.9546 3.4255-4.5913 5.0742-7.4902 3.2975-5.7979 6.1309-12.517 6.1309-17.102 0-8.8247-7.1753-16-16-16zm0 2c7.7438 0 14 6.2562 14 14 0 3.6995-2.6666 10.48-5.8691 16.111-1.6013 2.8155-3.3292 5.376-4.8633 7.1895-0.76704 0.90675-1.4885 1.6265-2.0859 2.0879s-1.0716 0.61133-1.1816 0.61133-0.5842-0.14992-1.1816-0.61133-1.3189-1.1811-2.0859-2.0879c-1.5341-1.8135-3.262-4.3739-4.8633-7.1895-3.2025-5.631-5.8691-12.412-5.8691-16.111 0-7.7438 6.2562-14 14-14z" color="#000" style="font-feature-settings:normal;font-variant-alternates:normal;font-variant-caps:normal;font-variant-east-asian:normal;font-variant-ligatures:normal;font-variant-numeric:normal;font-variant-position:normal;font-variation-settings:normal;inline-size:0;isolation:auto;mix-blend-mode:normal;shape-margin:0;shape-padding:0;text-decoration-color:#000;text-decoration-line:none;text-decoration-style:solid;text-indent:0;text-orientation:mixed;text-transform:none"/><path d="m30 19c-2.7496 0-5 2.2504-5 5s2.2504 5 5 5 5-2.2504 5-5-2.2504-5-5-5zm0 2c1.6687 0 3 1.3313 3 3s-1.3313 3-3 3-3-1.3313-3-3 1.3313-3 3-3z" color="#000" style="font-feature-settings:normal;font-variant-alternates:normal;font-variant-caps:normal;font-variant-east-asian:normal;font-variant-ligatures:normal;font-variant-numeric:normal;font-variant-position:normal;font-variation-settings:normal;inline-size:0;isolation:auto;mix-blend-mode:normal;shape-margin:0;shape-padding:0;text-decoration-color:#000;text-decoration-line:none;text-decoration-style:solid;text-indent:0;text-orientation:mixed;text-transform:none"/></svg>