<svg xmlns="http://www.w3.org/2000/svg" viewBox="0 0 64 64"><path d="M46.12,0H17.88a4.24,4.24,0,0,0-4.24,4.24V59.76A4.24,4.24,0,0,0,17.88,64H46.12a4.24,4.24,0,0,0,4.24-4.24V4.24A4.24,4.24,0,0,0,46.12,0Zm2.24,59.76A2.25,2.25,0,0,1,46.12,62H17.88a2.25,2.25,0,0,1-2.24-2.24V4.24A2.25,2.25,0,0,1,17.88,2H46.12a2.25,2.25,0,0,1,2.24,2.24ZM35,56.34h-5.9a1.75,1.75,0,0,0-1.75,1.75v.79a1.76,1.76,0,0,0,1.75,1.75H35a1.76,1.76,0,0,0,1.75-1.75v-.79A1.75,1.75,0,0,0,35,56.34Zm.75,2.54a.76.76,0,0,1-.75.75h-5.9a.76.76,0,0,1-.75-.75v-.79a.75.75,0,0,1,.75-.75H35a.75.75,0,0,1,.75.75ZM17.5,55.5h29V8.5h-29Zm1-46h27v45h-27Zm9-3.5a.5.5,0,0,1,.5-.5h8a.5.5,0,0,1,0,1H28A.5.5,0,0,1,27.5,6ZM43,6a.81.81,0,1,1,.81.81A.81.81,0,0,1,43,6ZM41.5,6a.5.5,0,1,1,.5.5A.5.5,0,0,1,41.5,6Zm4.08,52.84a1.73,1.73,0,0,1-1.85,1.57h-2a.38.38,0,0,1-.38-.38.37.37,0,0,1,.38-.37h2c.6,0,1.1-.38,1.1-.82s-.5-.82-1.1-.82H41.19l.2.17a.38.38,0,1,1-.49.57l-1-.83a0,0,0,0,1,0,0l0,0s0,0,0,0a.55.55,0,0,1-.06-.18.22.22,0,0,1,0-.08s0,0,0-.07a.39.39,0,0,1,.08-.1s0,0,0,0l1-.86a.37.37,0,1,1,.49.56l-.23.21h2.57A1.73,1.73,0,0,1,45.58,58.84ZM23.13,57.51a.37.37,0,0,1-.38.37h-3a.36.36,0,0,1-.37-.37.37.37,0,0,1,.37-.38h3A.38.38,0,0,1,23.13,57.51Zm0,1a.37.37,0,0,1-.38.37h-3a.36.36,0,0,1-.37-.37.37.37,0,0,1,.37-.38h3A.38.38,0,0,1,23.13,58.51Zm0,1a.37.37,0,0,1-.38.37h-3a.36.36,0,0,1-.37-.37.37.37,0,0,1,.37-.38h3A.38.38,0,0,1,23.13,59.51Z" data-name="Layer 5"/></svg>